<?xml version="1.0" encoding="utf-8"?>
<!-- Generator: Adobe Illustrator 18.1.0, SVG Export Plug-In . SVG Version: 6.00 Build 0)  -->
<!DOCTYPE svg PUBLIC "-//W3C//DTD SVG 1.1//EN" "http://www.w3.org/Graphics/SVG/1.1/DTD/svg11.dtd">
<svg version="1.1" id="svg" xmlns="http://www.w3.org/2000/svg" xmlns:xlink="http://www.w3.org/1999/xlink" x="0px" y="0px"
	 width="61px" height="173px" viewBox="22 -185 61 173" enable-background="new 22 -185 61 173" xml:space="preserve">
<path id="eth" d="M40-158v-8h2v8h2v-8h2v8h2v-8h2v8h2v-8h2v8h8c1.1,0,2-0.9,2-2v-18H53v-4h-4v-3H37v3h-4v4H22v18c0,1.1,0.9,2,2,2h8
	v-8h2v8h2v-8h2v8H40z"/>
<linearGradient id="spn_1_" gradientUnits="userSpaceOnUse" x1="80.65" y1="984.35" x2="69.35" y2="995.65" gradientTransform="matrix(1 0 0 -1 0 813)">
	<stop  offset="0.3" style="stop-color:#e9e9e9"/>
	<stop  offset="1" style="stop-color:#414141"/>
</linearGradient>
<path id="spn" fill="url(#spn_1_)" d="M75-185c-4.4,0-8,3.6-8,8s3.6,8,8,8s8-3.6,8-8S79.4-185,75-185z M75-171c-3.3,0-6-2.7-6-6
	s2.7-6,6-6s6,2.7,6,6S78.3-171,75-171z"/>
<path id="tom" fill="#414141" d="M38-122c-14.1,0-16-10.5-16-16s2.4-10.7,7.8-10.7c0.3,0,0.6,0,0.9,0c0.3,0.2,0.6,0.4,0.9,0.6
	c0,0-0.2,0.2-0.2,0.3c-2.1,2.4-2.1,2.8-4.2,2.6c-0.2,0.6,1.1,2.3,2.4,2.7c2.7,0.9,4.4,0.3,6.1-0.8c0.4,4.3,5.2,5.7,5.3,5.7
	c-0.1-1.4,0.4-4.3,0.4-5.8c1.5,1,3.1,1.2,4.7,0.6c2.2-0.8,2.5-2.7,2.5-2.7c-1.4,0.2-2-0.8-3.2-1.7c0.7-0.4,1.3-0.9,1.7-1.4
	c4.2,0.6,6.9,5.4,6.9,10.6C54-132.5,52.1-122,38-122z M41.4-143.5L41.4-143.5L41.4-143.5z M41.4-143.7c0,0.1,0,0.1,0,0.2l0,0
	C41.4-143.6,41.4-143.8,41.4-143.7z M41.9-148c1.3,0,3,3.1,4.7,3.1c0,0-0.7,0.8-2.3,0.8c-2.6,0-4.7-3.5-5.4-3.5c0,1.1,1,1,1,3.8
	c0,0.9-0.2,2.7-0.2,3.7c-0.1,0-2.6-1.3-2.6-4.6c0-1.4-0.1-2.8-0.1-2.8c0,1.4-2.5,3.8-4.9,3.8c-0.6,0-2.6-0.5-2.6-0.9
	c1.7,0,2-1.2,4.1-3.4c0.5-0.5,1.8,0,2.5-0.6c-6.2-0.4-5.6-3.7-5.6-4c0.6,0.6,1,1.2,2.6,1.2c1.1,0,3.8,0.7,4,2.1c0-1,1.9-4.4,3.3-4.7
	c0.6-0.1,0.9,0.1,0.4,0.4c-0.6,0.3-1.6,1.7-1.6,4.2c0.6,0,0.4-0.9,4.6-0.9c2.1,0,2.4-0.3,2.5-0.3C46.4-149.3,44-148,41.9-148z"/>
<path id="arw" fill="#414141" d="M71-110l4,4l4-4l-1-1l-3,3l-3-3L71-110z"/>
<g id="wfi">
	<path fill="#414141" d="M39.7-91.6c-2.1-2.2-5-3.5-8.2-3.5s-6.1,1.4-8.2,3.5L22-92.9c2.4-2.5,5.8-4.1,9.5-4.1s7.1,1.6,9.5,4.1
		L39.7-91.6z"/>
	<path fill="#414141" d="M31.5-93.3c2.7,0,5.2,1.2,7,3L37.2-89c-1.5-1.5-3.5-2.5-5.7-2.5s-4.2,0.9-5.7,2.5l-1.3-1.3
		C26.3-92.1,28.8-93.3,31.5-93.3z"/>
	<path fill="#414141" d="M31.5-89.6c1.7,0,3.3,0.7,4.4,1.9l-1.3,1.3c-0.8-0.8-1.9-1.4-3.2-1.4c-1.2,0-2.4,0.5-3.2,1.4l-1.3-1.3
		C28.2-88.8,29.8-89.6,31.5-89.6z"/>
	<path fill="#414141" d="M33.4-85l-1.9,2l-1.9-2c0.5-0.5,1.2-0.8,1.9-0.8C32.2-85.8,32.9-85.5,33.4-85z"/>
	<path fill="#BFBFBF" d="M59.7-91.6c-2.1-2.2-5-3.5-8.2-3.5s-6.1,1.4-8.2,3.5L42-92.9c2.4-2.5,5.8-4.1,9.5-4.1s7.1,1.6,9.5,4.1
		L59.7-91.6z"/>
	<path fill="#414141" d="M51.5-93.3c2.7,0,5.2,1.2,7,3L57.2-89c-1.5-1.5-3.5-2.5-5.7-2.5s-4.2,0.9-5.7,2.5l-1.3-1.3
		C46.3-92.1,48.8-93.3,51.5-93.3z"/>
	<path fill="#414141" d="M51.5-89.6c1.7,0,3.3,0.7,4.4,1.9l-1.3,1.3c-0.8-0.8-1.9-1.4-3.2-1.4c-1.2,0-2.4,0.5-3.2,1.4l-1.3-1.3
		C48.2-88.8,49.8-89.6,51.5-89.6z"/>
	<path fill="#414141" d="M53.4-85l-1.9,2l-1.9-2c0.5-0.5,1.2-0.8,1.9-0.8S52.9-85.5,53.4-85z"/>
	<path fill="#BFBFBF" d="M79.7-91.6c-2.1-2.2-5-3.5-8.2-3.5s-6.1,1.4-8.2,3.5L62-92.9c2.4-2.5,5.8-4.1,9.5-4.1s7.1,1.6,9.5,4.1
		L79.7-91.6z"/>
	<path fill="#BFBFBF" d="M71.5-93.3c2.7,0,5.2,1.2,7,3L77.2-89c-1.5-1.5-3.5-2.5-5.7-2.5s-4.2,0.9-5.7,2.5l-1.3-1.3
		C66.3-92.1,68.8-93.3,71.5-93.3z"/>
	<path fill="#414141" d="M71.5-89.6c1.7,0,3.3,0.7,4.4,1.9l-1.3,1.3c-0.8-0.8-1.9-1.4-3.2-1.4c-1.2,0-2.4,0.5-3.2,1.4l-1.3-1.3
		C68.2-88.8,69.8-89.6,71.5-89.6z"/>
	<path fill="#414141" d="M73.4-85l-1.9,2l-1.9-2c0.5-0.5,1.2-0.8,1.9-0.8S72.9-85.5,73.4-85z"/>
	<path fill="#BFBFBF" d="M79.7-20.6c-2.1-2.2-5-3.5-8.2-3.5s-6.1,1.4-8.2,3.5L62-21.9c2.4-2.5,5.8-4.1,9.5-4.1s7.1,1.6,9.5,4.1
		L79.7-20.6z"/>
	<path fill="#BFBFBF" d="M71.5-22.3c2.7,0,5.2,1.2,7,3L77.2-18c-1.5-1.5-3.5-2.5-5.7-2.5s-4.2,0.9-5.7,2.5l-1.3-1.3
		C66.3-21.1,68.8-22.3,71.5-22.3z"/>
	<path fill="#BFBFBF" d="M71.5-18.6c1.7,0,3.3,0.7,4.4,1.9l-1.3,1.3c-0.8-0.8-1.9-1.4-3.2-1.4c-1.2,0-2.4,0.5-3.2,1.4l-1.3-1.3
		C68.2-17.8,69.8-18.6,71.5-18.6z"/>
	<path fill="#414141" d="M73.4-14l-1.9,2l-1.9-2c0.5-0.5,1.2-0.8,1.9-0.8S72.9-14.5,73.4-14z"/>
</g>
<path fill="#606060" d="M29-79h-1v1h1V-79z M27-78h-1v1h1V-78z M25-75h1v-1h-1V-75z M28.5-82c-3.6,0-6.5,2.9-6.5,6.5
	c0,1.7,0.7,3.3,1.8,4.5H25v-1.7c-0.6-0.8-1-1.7-1-2.8c0-2.5,2-4.5,4.5-4.5s4.5,2,4.5,4.5c0,1.1-0.4,2-1,2.8v1.7h1.2
	c1.1-1.2,1.8-2.8,1.8-4.5C35-79.1,32.1-82,28.5-82z M32-76h-1v1h1V-76z M31-78h-1v1h1V-78z M29-76h-1v3l-1,1v2h3v-2l-1-1V-76z"/>
<path fill="#606060" d="M48-79.5c0-0.8-0.7-1.5-1.5-1.5H36v3h10.5C47.3-78,48-78.7,48-79.5z M46.5-77H36v3h10.5
	c0.8,0,1.5-0.7,1.5-1.5S47.3-77,46.5-77z M46.5-73H36v3h10.5c0.8,0,1.5-0.7,1.5-1.5S47.3-73,46.5-73z"/>
<path fill="#606060" d="M61-71v-4c0-0.4-0.6-1-1-1h-3v-3h0.5c0.8,0,1.5-0.7,1.5-1.5S58.3-82,57.5-82h-2c-0.8,0-1.5,0.7-1.5,1.5
	s0.7,1.5,1.5,1.5H56v3h-3c-0.4,0-1,0.6-1,1v4l-1,1v1h3v-1l-1-1v-3c0-0.5,0.4-1,1-1h2v4l-1,1v1h3v-1l-1-1v-4h2c0.5,0,1,0.4,1,1v3
	l-1,1v1h3v-1L61-71z"/>
<g>
	<polygon fill="#606060" points="65,-80 67,-80 70,-76.4 67,-73 65,-73 68,-76.5 	"/>
	<path fill="#606060" d="M71-72v1h5v-1H71z"/>
</g>
<path fill="#606060" d="M35-61h-6.1c-0.2,1.1-1.2,2-2.4,2s-2.2-0.9-2.4-2H22v-1h2.1c0.2-1.1,1.2-2,2.4-2s2.2,0.9,2.4,2H35V-61z"/>
<path fill="#606060" d="M47.5-65c0.8,0,1.5-0.7,1.5-1.5S48.3-68,47.5-68S46-67.3,46-66.5S46.7-65,47.5-65z M47.5-58
	c-0.8,0-1.5,0.7-1.5,1.5s0.7,1.5,1.5,1.5s1.5-0.7,1.5-1.5S48.3-58,47.5-58z M47.5-63c-0.8,0-1.5,0.7-1.5,1.5s0.7,1.5,1.5,1.5
	s1.5-0.7,1.5-1.5S48.3-63,47.5-63z M36-56h9v-1h-9V-56z M36-66h9v-1h-9V-66z M36-61h9v-1h-9V-61z"/>
<path fill="#606060" d="M60.5-63.1c-1.4,0-2.5,1.1-2.5,2.5c0,0.2,0,0.3,0,0.5l-5.3,2.7c-0.2-0.3-0.4-0.4-0.7-0.5v-7.2
	c0.6-0.2,1-0.8,1-1.4c0-0.8-0.7-1.5-1.5-1.5S50-67.3,50-66.5c0,0.7,0.4,1.2,1,1.4v7.2c-0.6,0.2-1,0.8-1,1.4c0,0.8,0.7,1.5,1.5,1.5
	s1.5-0.7,1.5-1.5l5.4-2.7c0.4,0.7,1.2,1.2,2.1,1.2c1.4,0,2.5-1.1,2.5-2.5C63-62,61.9-63.1,60.5-63.1z"/>
<path fill="#606060" d="M31.5-47c-1.4,0-2.5,1.1-2.5,2.5s1.1,2.5,2.5,2.5c1.4,0,2.5-1.1,2.5-2.5S32.9-47,31.5-47z M25.5-48
	c1.4,0,2.5-1.1,2.5-2.5S26.9-53,25.5-53S23-51.9,23-50.5S24.1-48,25.5-48z M33-53L23-43l1,1l10-10L33-53z"/>
<path fill="#606060" d="M36-53h10.5c0.8,0,1.5,0.7,1.5,1.5l0,0c0,0.8-0.7,1.5-1.5,1.5H36V-53z M36-42h7.5c0.8,0,1.5-0.7,1.5-1.5l0,0
	c0-0.8-0.7-1.5-1.5-1.5H36V-42z M36-46h3.5c0.8,0,1.5-0.7,1.5-1.5l0,0c0-0.8-0.7-1.5-1.5-1.5H36V-46z"/>
<path fill="#606060" d="M73-48v-6h-5v6h-2v1.6c0,3.6,0.9,5.4,4.5,5.4s4.5-1.9,4.5-5.4V-48H73z M71-51h1v2h-1V-51z M69-51h1v2h-1V-51
	z"/>
<path fill="#606060" d="M61.3-45l-0.8-0.8c0.9-0.9,1.4-2.2,1.4-3.7c0-1.4-0.5-2.7-1.4-3.7l0.8-0.8c1.1,1.2,1.7,2.7,1.7,4.5
	C63-47.6,62.3-46.1,61.3-45z M59.8-46.6L59-47.3c0.5-0.5,0.8-1.2,0.8-2s-0.3-1.5-0.8-2l0.8-0.8c0.7,0.7,1.1,1.8,1.1,2.9
	C60.9-48.3,60.4-47.4,59.8-46.6z M57-48.9l2,7.9h-5l2-7.9C56.2-49.7,56.8-49.7,57-48.9z M54.2-47.4l-0.8,0.8
	c-0.7-0.7-1.2-1.7-1.2-2.8c0-1.1,0.4-2.1,1.2-2.8l0.8,0.8c-0.5,0.5-0.8,1.2-0.8,2C53.4-48.6,53.7-47.9,54.2-47.4z M52.6-45.9
	l-0.8,0.8c-1.1-1.1-1.8-2.7-1.8-4.5c0-1.7,0.7-3.3,1.8-4.5l0.8,0.8c-0.9,0.9-1.5,2.2-1.5,3.6C51.1-48.1,51.7-46.8,52.6-45.9z"/>
<path fill="#606060" d="M33-27h-9c-1.1,0-2-0.9-2-2v-3c0-1.1,0.9-2,2-2c0-0.2,0-0.7,0-1.5c0-2.5,2-4.5,4.5-4.5s4.5,2,4.5,4.5
	c0,0.8,0,1.3,0,1.5c1.1,0,2,0.9,2,2v3C35-27.9,34.1-27,33-27z M28-29h1v-3h-1V-29z M28.5-38c-1.4,0-2.5,1.1-2.5,2.5
	c0,0.6,0.2,1.1,0.5,1.5h4c0.3-0.4,0.5-0.9,0.5-1.5C31-36.9,29.9-38,28.5-38z"/>
<path fill="#606060" d="M48.8-34.7C48.5-34.8,47-35,47-35l-0.1-0.7c0,0,0.9-1.2,1.1-1.4c0.1-0.1,0.1-0.3,0-0.4l-1.3-1.3
	c-0.1-0.1-0.2-0.1-0.4,0c-0.3,0.1-1.4,1.1-1.4,1.1L44-38c0,0-0.2-1.5-0.3-1.8c0-0.2-0.1-0.2-0.3-0.2h-1.9c-0.2,0-0.3,0.1-0.3,0.2
	c-0.1,0.3-0.3,1.8-0.3,1.8l-0.7,0.1c0,0-1.2-0.9-1.4-1.1c-0.1-0.1-0.3-0.1-0.4,0l-1.3,1.3c-0.1,0.1-0.1,0.2,0,0.4
	c0.1,0.3,1.1,1.4,1.1,1.4L38-35c0,0-1.5,0.2-1.8,0.3c-0.2,0-0.2,0.1-0.2,0.3v1.9c0,0.2,0.1,0.3,0.2,0.3c0.3,0.1,1.8,0.3,1.8,0.3
	l0.1,0.7c0,0-0.9,1.2-1.1,1.4c-0.1,0.1-0.1,0.3,0,0.4l1.3,1.3c0.1,0.1,0.2,0.1,0.4,0c0.3-0.1,1.4-1.1,1.4-1.1L41-29
	c0,0,0.2,1.5,0.3,1.8c0,0.2,0.1,0.2,0.3,0.2h1.9c0.2,0,0.3-0.1,0.3-0.2c0.1-0.3,0.3-1.8,0.3-1.8l0.7-0.1c0,0,1.2,0.9,1.4,1.1
	c0.1,0.1,0.3,0.1,0.4,0l1.3-1.3c0.1-0.1,0.1-0.2,0-0.4c-0.1-0.3-1.1-1.4-1.1-1.4L47-32c0,0,1.5-0.2,1.8-0.3c0.2,0,0.2-0.1,0.2-0.3
	v-1.9C49-34.6,48.9-34.7,48.8-34.7z M44.3-31.7c-1,1-2.6,1-3.5,0s-1-2.6,0-3.5c1-1,2.6-1,3.5,0C45.2-34.3,45.2-32.7,44.3-31.7z"/>
<path fill="#606060" d="M58.5-36.2h-0.6l-3.1,0.5l-0.1,0.4c0.1,0,0.2,0,0.3,0c0.2,0,0.4,0.1,0.5,0.2c0.1,0.1,0.2,0.2,0.2,0.4
	s-0.1,0.6-0.2,1l-1.3,4.6c-0.1,0.4-0.2,0.7-0.2,0.9c0,0.4,0.1,0.7,0.4,0.9c0.2,0.2,0.6,0.3,1,0.3c1.1,0,2-0.8,3-2.5L58-29.8
	c-0.4,0.6-0.7,1-1,1.3c-0.1,0.1-0.2,0.1-0.3,0.1s-0.1,0-0.2-0.1c-0.1-0.1-0.1-0.1-0.1-0.2s0.1-0.4,0.2-0.8L58.5-36.2z M57.6-38
	c0.6,0,1-0.5,1-1c0-0.6-0.4-1-1-1s-1,0.5-1,1S57-38,57.6-38z"/>
<linearGradient id="SVGID_1_" gradientUnits="userSpaceOnUse" x1="74.023" y1="-841.6985" x2="66.977" y2="-833.3015" gradientTransform="matrix(1 0 0 1 0 804)">
	<stop  offset="0.15" style="stop-color:transparent;stop-opacity:0"/>
	<stop  offset="0.5" style="stop-color:#606060"/>
</linearGradient>
<path fill="url(#SVGID_1_)" d="M70.5-39c-3,0-5.5,2.5-5.5,5.5s2.5,5.5,5.5,5.5s5.5-2.5,5.5-5.5S73.5-39,70.5-39z M70.5-30
	c-1.9,0-3.5-1.6-3.5-3.5c0-1.9,1.6-3.5,3.5-3.5s3.5,1.6,3.5,3.5C74-31.6,72.4-30,70.5-30z"/>
<linearGradient id="SVGID_2_" gradientUnits="userSpaceOnUse" x1="65" y1="-837.5" x2="76" y2="-837.5" gradientTransform="matrix(1 0 0 1 0 804)">
	<stop  offset="0.5" style="stop-color:#606060"/>
	<stop  offset="0.5" style="stop-color:transparent;stop-opacity:0"/>
</linearGradient>
<path fill="url(#SVGID_2_)" d="M70.5-39c-3,0-5.5,2.5-5.5,5.5s2.5,5.5,5.5,5.5s5.5-2.5,5.5-5.5S73.5-39,70.5-39z M70.5-30
	c-1.9,0-3.5-1.6-3.5-3.5c0-1.9,1.6-3.5,3.5-3.5s3.5,1.6,3.5,3.5C74-31.6,72.4-30,70.5-30z"/>
<path fill="#606060" d="M30-23.8v2.1c1.2,0.6,2,1.8,2,3.2c0,1.9-1.6,3.5-3.5,3.5S25-16.6,25-18.5c0-1.4,0.8-2.6,2-3.2v-2.1
	c-2.3,0.7-4,2.8-4,5.3c0,3,2.5,5.5,5.5,5.5s5.5-2.5,5.5-5.5C34-21,32.3-23.1,30-23.8z M29-26h-1v7h1V-26z"/>
<path fill="#606060" d="M65-68c0,0,1,1,3,1c1,0,2.5-1,2.5-1l0,0c0,0,1.5,1,2.5,1s3-1,3-1s0,4.4,0,5c0,3-3.5,8-5.5,8
	c-0.6,0,0.3,0,0,0c-2,0-5.5-5-5.5-8C65-64.7,65-68,65-68z"/>
<path fill="#606060" d="M38-16v-7c0-0.6,0.4-1,1-1h3v-2h-4c-1.1,0-2,0.9-2,2v9c0,1.1,0.9,2,2,2h4v-2h-3C38.4-15,38-15.4,38-16z
	 M46-23l-1,1l2,2h-7v1h7l-2,2l1,1l3-3.5l0,0L46-23z"/>
<path fill="#414141" d="M57.3-15.8c0,0-2.2,1-2.8,1S53-16.9,53-16.9C53-22.7,60.6-19.1,57.3-15.8z"/>
<path fill="#FFFFFF" d="M54.1-18.4c0,0-0.1,0.1-0.1,0.2s0,0.2,0.1,0.2c0,0,0.1-0.1,0.1-0.2S54.1-18.4,54.1-18.4z M56.9-17.5l0.2,0.1
	c0.1,0,0.1,0,0.2,0h0.1c0.1,0,0.1-0.2,0.1-0.2V-18c0-0.6-0.4-1.3-1-1.3s-1,0.5-1,1v0.5v0.1c-0.2,0-0.4-0.1-0.6-0.1
	c-0.1,0-0.2,0-0.4,0.1c0.1-0.2,0.1-0.4,0.1-0.6c0-0.6-0.3-1-0.6-1c-0.4,0-0.6,0.4-0.6,1c0,0.5,0.2,0.9,0.5,1
	c-0.2,0.2-0.4,0.3-0.4,0.5v0.1c0.1,0.2,0.4,0.7,1.1,0.7c1.3,0,2.1-0.7,2.3-0.7c0,0.5-1.8,1-1.8,1H55c-0.2,0-0.4,0-0.4,0
	c-0.3,0-0.3,0.4,0,0.4h0.1c0.6,0,1.9-0.7,1.9-0.7s0.6-0.2,0.6-0.7c0-0.4-0.2-0.4-0.7-0.6c-0.2-0.1-0.4-0.2-0.6-0.3H56
	c-0.1-0.1-0.2-0.3-0.2-0.4c0-0.4,0.3-0.7,0.6-0.7S57-18.4,57-18C57-17.8,56.9-17.6,56.9-17.5L56.9-17.5
	C56.8-17.5,56.8-17.5,56.9-17.5z M54.3-17.6c-0.1,0.1-0.2,0.1-0.3,0.2c-0.2,0-0.3-0.3-0.3-0.6c0-0.4,0.2-0.7,0.3-0.7
	s0.4,0.3,0.4,0.7C54.4-17.9,54.4-17.7,54.3-17.6z M56.7-18.4c-0.1,0-0.2,0.1-0.2,0.2s0.1,0.2,0.2,0.2c0.1,0,0.1-0.1,0.1-0.2
	S56.7-18.4,56.7-18.4z"/>
<path fill="#FFFFFF" stroke="#000000" stroke-miterlimit="10" d="M72.8-79.4"/>
</svg>
